<?xml version="1.0" standalone="no"?>
<!DOCTYPE svg PUBLIC "-//W3C//DTD SVG 20010904//EN"
 "http://www.w3.org/TR/2001/REC-SVG-20010904/DTD/svg10.dtd">
<svg version="1.0" xmlns="http://www.w3.org/2000/svg"
 width="2048.000000pt" height="2048.000000pt" viewBox="0 0 2048.000000 2048.000000"
 preserveAspectRatio="xMidYMid meet">

<g transform="translate(0.000000,2048.000000) scale(0.100000,-0.100000)"
fill="#000000" stroke="none">
<path d="M3595 12081 c0 -4263 2 -4798 15 -4790 8 5 107 71 220 148 332 226
972 652 1059 706 l81 50 0 3663 0 3662 5158 0 c2836 0 5208 3 5270 7 l112 6 0
-5286 0 -5287 -4076 4 -4075 3 -24 -31 c-14 -17 -44 -58 -68 -91 -24 -33 -82
-112 -128 -175 -47 -63 -145 -198 -219 -300 -73 -102 -150 -207 -170 -235 -21
-27 -83 -115 -140 -194 -56 -79 -131 -182 -167 -229 -35 -46 -67 -91 -70 -98
-4 -12 812 -14 5251 -14 l5256 0 -1 5083 c0 2795 2 5783 4 6640 l5 1557 -6647
0 -6646 0 0 -4799z"/>
<path d="M14680 14835 c-19 -8 -147 -46 -285 -85 -137 -40 -335 -98 -440 -130
-104 -32 -246 -75 -315 -95 -69 -20 -204 -61 -300 -90 -215 -65 -434 -129
-560 -165 -52 -15 -185 -55 -295 -88 -110 -33 -227 -68 -260 -77 -91 -25 -105
-29 -310 -88 -104 -30 -228 -66 -275 -81 -47 -14 -296 -87 -555 -162 -258 -75
-490 -143 -515 -150 -25 -7 -117 -33 -205 -58 -174 -49 -367 -105 -570 -166
-156 -46 -573 -170 -815 -241 -96 -28 -246 -71 -332 -95 -86 -24 -199 -57
-250 -73 -51 -17 -140 -44 -198 -60 -121 -34 -407 -117 -660 -191 -96 -28
-213 -62 -260 -75 -47 -13 -211 -60 -365 -105 -154 -45 -292 -84 -308 -87 -28
-5 -48 -23 -26 -23 7 0 40 -17 73 -39 34 -21 140 -85 236 -143 96 -57 265
-158 375 -225 197 -118 320 -191 768 -454 125 -74 314 -185 420 -248 106 -62
211 -123 233 -134 l42 -20 203 128 c112 70 229 145 259 165 30 20 132 83 225
140 333 204 591 364 645 400 30 21 102 66 160 100 58 34 130 79 160 100 30 20
93 59 140 87 47 28 159 97 250 153 91 57 221 137 290 179 99 61 340 210 474
294 11 7 67 42 125 79 58 38 126 80 151 95 124 74 523 318 660 403 85 54 301
186 480 295 179 108 348 211 375 228 28 16 86 50 130 75 44 24 156 90 250 147
93 56 235 138 315 182 80 45 187 105 237 134 155 91 325 181 330 176 8 -8
-200 -166 -461 -351 -17 -11 -36 -25 -42 -31 -6 -5 -58 -44 -115 -85 -121 -88
-230 -168 -469 -346 -96 -72 -213 -158 -260 -192 -47 -34 -110 -81 -141 -104
-31 -24 -166 -124 -300 -223 -134 -99 -280 -207 -324 -241 -44 -33 -147 -109
-230 -169 -190 -138 -461 -338 -633 -469 -74 -55 -246 -182 -383 -281 -550
-398 -749 -542 -854 -620 -60 -45 -152 -111 -202 -146 -51 -35 -163 -116 -250
-179 -86 -63 -167 -122 -179 -130 -13 -8 -102 -72 -198 -142 -96 -69 -196
-139 -223 -154 -26 -15 -50 -29 -52 -30 -2 -2 -12 -70 -22 -151 -21 -168 -69
-499 -99 -678 -11 -66 -40 -255 -65 -420 -25 -165 -63 -415 -86 -555 -52 -332
-52 -330 -44 -330 7 0 90 70 291 247 313 275 561 488 919 787 191 160 227 196
212 215 -10 12 -9 14 4 9 18 -7 155 -98 319 -211 161 -112 412 -281 785 -532
448 -300 612 -412 656 -447 20 -15 41 -28 46 -28 11 0 185 401 330 760 57 140
107 264 113 275 5 11 31 74 58 140 130 320 303 734 338 810 7 17 31 73 53 125
21 52 72 176 113 275 115 273 172 411 260 625 44 107 133 321 198 475 65 154
157 377 205 495 49 118 125 303 170 410 46 107 113 269 150 360 37 91 72 172
76 180 12 20 127 290 201 470 33 80 70 170 83 200 12 30 48 116 78 190 31 74
72 172 91 218 37 87 36 91 -24 67z m-50 -59 c0 -2 -8 -10 -17 -17 -16 -13 -17
-12 -4 4 13 16 21 21 21 13z"/>
<path d="M8409 9702 c-190 -133 -346 -245 -464 -333 -49 -36 -134 -97 -187
-135 -120 -86 -607 -442 -856 -627 -103 -76 -198 -147 -212 -157 -14 -10 -115
-85 -225 -167 -299 -222 -606 -448 -674 -496 -33 -23 -183 -134 -333 -247
-228 -172 -503 -376 -657 -488 -40 -29 -32 -36 49 -46 107 -13 538 -78 775
-116 132 -21 276 -44 320 -51 44 -6 83 -15 87 -18 4 -3 -36 -61 -90 -127 -166
-207 -422 -536 -627 -807 -66 -87 -174 -229 -240 -315 -476 -624 -733 -964
-875 -1158 -52 -71 -157 -212 -233 -313 -150 -198 -356 -487 -365 -511 -3 -8
12 0 34 17 21 18 64 52 94 75 130 101 560 446 615 493 33 29 124 103 201 166
220 177 546 444 679 554 151 127 467 387 589 485 278 226 584 477 660 543 33
28 98 83 145 121 106 85 364 298 371 306 6 8 149 124 310 252 69 55 166 133
215 173 50 40 131 106 181 147 50 40 154 124 232 187 78 63 140 116 138 119
-6 6 -555 96 -861 142 -77 11 -176 27 -220 35 -44 8 -124 21 -177 30 l-98 17
45 56 c25 32 103 128 173 214 207 255 638 792 772 963 69 88 177 225 240 305
63 80 147 188 187 240 39 52 80 104 91 116 18 19 264 332 336 427 16 20 24 37
18 37 -5 0 -79 -49 -163 -108z"/>
</g>
</svg>
